# AST/ASF file generated using VICON BodyLanguage
# -----------------------------------------------
:version 1.10
:name VICON
:units
  mass 1.0
  length 0.45
  angle deg
:documentation
   .ast/.asf automatically generated from VICON data using
   VICON BodyBuilder and BodyLanguage model FoxedUp or BRILLIANT.MOD
:root
   order TX TY TZ RX RY RZ
   axis XYZ
   position 0 0 0  
   orientation 0 0 0 
:bonedata
  begin
     id 1 
     name lhipjoint
     direction 0.655637 -0.713449 0.247245 
     length 2.52691 
     axis 0 0 0  XYZ
  end
  begin
     id 2 
     name lfemur
     direction 0.34202 -0.939693 0  
     length 7.59371  
     axis 0 0 20  XYZ
    dof rx ry rz
    limits (-160.0 20.0)
           (-70.0 70.0)
           (-60.0 70.0)
  end
  begin
     id 3 
     name ltibia
     direction 0.34202 -0.939693 0   
     length 7.28717   
     axis 0 0 20   XYZ
    dof rx
    limits (-10.0 170.0)
  end
  begin
     id 4 
     name lfoot
     direction 0.0886837 -0.243657 0.965798   
     length 2.2218   
     axis -90 7.62852e-016 20   XYZ
    dof rx rz
    limits (-45.0 90.0)
           (-70.0 20.0)
  end
  begin
     id 5 
     name ltoes
     direction 1.53547e-011 -4.22004e-011 1   
     length 1.11249   
     axis -90 7.62852e-016 20   XYZ
    dof rx
    limits (-90.0 20.0)
  end
  begin
     id 6 
     name rhipjoint
     direction -0.645062 -0.722004 0.250209   
     length 2.49697  
     axis 0 0 0  XYZ 
  end
  begin
     id 7 
     name rfemur
     direction -0.34202 -0.939693 0   
     length 7.58734   
     axis 0 0 -20   XYZ
    dof rx ry rz
    limits (-160.0 20.0)
           (-70.0 70.0)
           (-70.0 60.0)
  end
  begin
     id 8 
     name rtibia
     direction -0.34202 -0.939693 0   
     length 7.21538   
     axis 0 0 -20   XYZ
    dof rx
    limits (-10.0 170.0)
 end
 begin
     id 9 
     name rfoot
     direction -0.102907 -0.282735 0.953662   
     length 2.23735  
     axis -90 -7.62852e-016 -20   XYZ
    dof rx rz
    limits (-45.0 90.0)
           (-20.0 70.0)
  end
  begin
     id 10 
     name rtoes
     direction -1.5354e-011 -4.21751e-011 1   
     length 1.11569   
     axis -90 -7.62852e-016 -20   XYZ
    dof rx
    limits (-90.0 20.0)
  end
  begin
     id 11 
     name lowerback
     direction 0.00952301 0.997604 -0.0685217   
     length 2.05943   
     axis 0 0 0   XYZ
    dof rx ry rz
    limits (-20.0 45.0)
           (-30.0 30.0)
           (-30.0 30.0)
  end
  begin
     id 12 
     name upperback
     direction 0.00494399 0.999577 -0.0286701   
     length 2.06523   
     axis 0 0 0   XYZ
    dof rx ry rz
    limits (-20.0 45.0)
           (-30.0 30.0)
           (-30.0 30.0)
  end
  begin
     id 13 
     name thorax
     direction 0.000729686 0.999992 0.00388603   
     length 2.06807   
     axis 0 0 0   XYZ
    dof rx ry rz
    limits (-20.0 45.0)
           (-30.0 30.0)
           (-30.0 30.0)
  end
  begin
     id 14 
     name lowerneck
     direction 0.00452882 0.995459 0.0950816   
     length 1.57426   
     axis 0 0 0   XYZ
    dof rx ry rz
    limits (-20.0 45.0)
           (-30.0 30.0)
           (-30.0 30.0)
  end
  begin
     id 15 
     name upperneck
     direction 0.021922 0.997711 -0.0639762   
     length 1.56399   
     axis 0 0 0   XYZ
    dof rx ry rz
    limits (-20.0 45.0)
           (-30.0 30.0)
           (-30.0 30.0)
  end
  begin
     id 16
     name head
     direction 0.008024 0.999444 -0.0323691  
     length 1.6265  
     axis 0 0 0   XYZ
    dof rx ry rz
    limits (-20.0 45.0)
           (-30.0 30.0)
           (-30.0 30.0)
  end
  begin
     id 17 
     name lclavicle
     direction 0.967826 0.247107 -0.0474446  
     length 3.6598  
     axis 0 0 0   XYZ
    dof ry rz
    limits (-20.0 10.0)
           (0.0 20.0)
  end
  begin
     id 18 
     name lhumerus
     direction 1 -4.48971e-011 -2.90544e-027   
     length 4.86513   
     axis 180 -30 -90   XYZ
    dof rx ry rz
    limits (-60.0 90.0)
           (-90.0 90.0)
           (-90.0 90.0)
  end
  begin
     id 19
     name lradius
     direction 1 -4.48958e-011 1.79638e-026   
     length 3.35554   
     axis 180 -30 -90   XYZ
    dof rx
    limits (-10.0 170.0)
  end
  begin
     id 20
     name lwrist
     direction 1 -4.48952e-011 3.34345e-026   
     length 1.67777   
     axis -2.22354e-014 90 90   XYZ
    dof ry
    limits (-180.0 0.0)
 end
  begin
     id 21 
     name lhand
     direction 1 -4.49055e-011 6.6869e-026   
     length 0.661175   
     axis -4.26681e-014 90 90   XYZ
    dof rx rz
    limits (-90.0 90.0)
           (-45.0 45.0)
  end
  begin
     id 22 
     name lfingers
     direction 1 -4.48731e-011 1.33738e-025   
     length 0.533057   
     axis -8.53362e-014 90 90   XYZ
    dof rx
    limits (0.0 90.0)
  end
  begin
     id 23
     name lthumb
     direction 0.707107 -6.35005e-011 0.707107   
     length 0.765366   
     axis -90 45 2.85299e-015   XYZ
    dof rx rz
    limits (-45.0 45.0)
           (-45.0 45.0)
  end
  begin
     id 24 
     name rclavicle
     direction -0.973174 0.211421 -0.0907389   
     length 3.59444  
     axis 0 0 0   XYZ 
    dof ry rz
    limits (-10.0 20.0)
           (-20.0 0.0)
  end
  begin
     id 25 
     name rhumerus
     direction -1 -4.48964e-011 1.56311e-027  
     length 5.02649   
     axis 180 30 90   XYZ
    dof rx ry rz
    limits (-90.0 60.0)
           (-90.0 90.0)
           (-90.0 90.0)
  end
  begin
     id 26 
     name rradius
     direction -1 -4.48948e-011 2.01724e-026   
     length 3.36431   
     axis 180 30 90   XYZ
    dof rx
    limits (-10.0 170.0)
  end
  begin
     id 27 
     name rwrist
     direction -1 -4.49008e-011 3.34345e-026   
     length 1.68216   
     axis -2.22354e-014 -90 -90   XYZ
    dof ry
    limits (-180.0 0.0)
  end
  begin
     id 28
     name rhand
     direction -1 -4.49013e-011 6.6869e-026   
     length 0.730406   
     axis -4.26681e-014 -90 -90   XYZ
    dof rx rz
    limits (-90.0 90.0)
           (-45.0 45.0)
  end
  begin
     id 29
     name rfingers
     direction -1 -4.48867e-011 1.33738e-025   
     length 0.588872   
     axis -8.53362e-014 -90 -90   XYZ
    dof rx
    limits (0.0 90.0)
  end
  begin
     id 30
     name rthumb
     direction -0.707107 -6.34907e-011 0.707107   
     length 0.845506   
     axis -90 -45 -2.85299e-015   XYZ
    dof rx rz
    limits (-45.0 45.0)
           (-45.0 45.0)
  end
:hierarchy
  begin
    root lhipjoint rhipjoint lowerback
    lhipjoint lfemur
    lfemur ltibia
    ltibia lfoot
    lfoot ltoes
    rhipjoint rfemur
    rfemur rtibia
    rtibia rfoot
    rfoot rtoes
    lowerback upperback
    upperback thorax
    thorax lowerneck lclavicle rclavicle
    lowerneck upperneck
    upperneck head
    lclavicle lhumerus
    lhumerus lradius
    lradius lwrist
    lwrist lhand lthumb
    lhand lfingers
    rclavicle rhumerus
    rhumerus rradius
    rradius rwrist
    rwrist rhand rthumb
    rhand rfingers
  end

#!OML:ASF H:\Terrain\Patient Classification 1\Takeo\Monday\TakeoMonday.ASF
:FULLY-SPECIFIED
:DEGREES

194
root 10.075 16.9307 5.87416 -2.31553 7.29119 3.04676
lowerback 6.68323 -3.42318 -2.64505
upperback 1.19033 -4.71824 0.870041
thorax -2.22064 -2.33292 2.76512
lowerneck -14.8746 1.86553 -3.18822
upperneck -0.30742 3.11309 -2.31118
head 2.46433 1.44638 0.013128
rclavicle 7.45443e-015 7.95139e-016
rhumerus -57.5146 -14.3096 -71.2375
rradius 10.29
rwrist 8.68448
rhand -28.255 19.0974
rfingers 7.12502
rthumb -1.63221 -10.8761
lclavicle 7.45443e-015 7.95139e-016
lhumerus -28.0817 -9.66109 88.3728
lradius 82.5011
lwrist 31.3646
lhand -25.568 11.7073
lfingers 7.12502
lthumb 0.962989 41.6848
rfemur -31.4302 7.29111 15.9528
rtibia 33.1896
rfoot -13.9832 -15.4339
rtoes -16.2124
lfemur 24.709 -4.22233 -25.855
ltibia 20.0819
lfoot -5.03782 -1.48771
ltoes -23.0011
195
root 10.0516 16.9204 6.17199 -2.00106 6.98611 3.17536
lowerback 5.96688 -3.43961 -2.84494
upperback 1.01181 -4.73903 0.830648
thorax -1.99182 -2.3452 2.79329
lowerneck -14.6041 2.1303 -2.68952
upperneck -0.274953 3.3885 -2.75131
head 2.44211 1.5691 -0.201244
rclavicle -1.11568e-014 7.95139e-015
rhumerus -57.458 -14.6916 -70.7971
rradius 9.497
rwrist 9.10451
rhand -28.3187 19.6335
rfingers 7.12502
rthumb -1.69371 -10.3395
lclavicle -1.11568e-014 7.95139e-015
lhumerus -29.0503 -9.45154 88.3271
lradius 82.7379
lwrist 31.2326
lhand -25.8107 11.5932
lfingers 7.12502
lthumb 0.728582 41.5717
rfemur -32.0209 7.58537 16.0868
rtibia 34.9697
rfoot -12.6211 -15.5725
rtoes -15.792
lfemur 24.3469 -3.94202 -25.7586
ltibia 21.4915
lfoot -2.91161 -1.24179
ltoes -21.7471
196
root 10.0336 16.9145 6.46014 -1.76021 6.76084 3.2446
lowerback 5.49751 -3.47154 -2.89861
upperback 0.840712 -4.77416 0.848524
thorax -1.89841 -2.36255 2.81725
lowerneck -14.6319 2.35626 -2.53191
upperneck -0.0313152 3.68105 -2.977
head 2.53911 1.70048 -0.280374
rclavicle -4.86525e-014 1.43125e-014
rhumerus -57.2512 -15.1222 -70.2831
rradius 8.90662
rwrist 9.56564
rhand -28.3727 19.4358
rfingers 7.12502
rthumb -1.74582 -10.5368
lclavicle -4.86525e-014 1.43125e-014
lhumerus -29.9871 -9.1615 88.4266
lradius 82.826
lwrist 31.1358
lhand -25.6486 11.9362
lfingers 7.12502
lthumb 0.885172 41.9141
rfemur -32.4095 7.81466 16.2316
rtibia 36.607
rfoot -11.9535 -15.1192
rtoes -15.8161
lfemur 23.7783 -3.65372 -25.5902
ltibia 23.3905
lfoot -0.50936 -0.90197
ltoes -21.3035
197
root 10.021 16.9129 6.74156 -1.90747 6.39263 2.37275
lowerback 5.43418 -3.47035 -2.0035
upperback 0.678909 -4.71217 1.17471
thorax -2.07868 -2.33208 2.65473
lowerneck -14.7456 2.4843 -2.57324
upperneck 0.520713 3.89443 -3.20366
head 2.75581 1.78342 -0.326884
rclavicle 9.39258e-015 3.18055e-015
rhumerus -57.1847 -15.409 -69.5686
rradius 8.61246
rwrist 9.63913
rhand -28.6065 19.5445
rfingers 7.12502
rthumb -1.9717 -10.4261
lclavicle 9.39258e-015 3.18055e-015
lhumerus -31.1394 -8.76409 88.7296
lradius 82.72
lwrist 31.058
lhand -25.502 11.9006
lfingers 7.12502
lthumb 1.02674 41.8779
rfemur -32.3553 8.09501 17.5373
rtibia 38.1085
rfoot -11.3194 -14.5061
rtoes -11.0696
lfemur 23.2428 -3.3507 -24.4187
ltibia 25.7317
lfoot 1.84035 -0.709845
ltoes -22.0366
198
root 9.99806 16.9092 7.01392 -2.19955 5.74678 1.40418
lowerback 5.53564 -3.37422 -1.16929
upperback 0.658735 -4.5271 1.49813
thorax -2.2053 -2.24331 2.52013
lowerneck -15.1101 2.65395 -2.31166
upperneck 1.1124 4.13338 -3.59851
head 3.04821 1.86869 -0.4759
rclavicle -2.01766e-014 -1.59028e-015
rhumerus -56.9261 -15.7525 -68.9734
rradius 8.4454
rwrist 9.72463
rhand -28.5905 19.3743
rfingers 7.12502
rthumb -1.95624 -10.5965
lclavicle -2.01766e-014 -1.59028e-015
lhumerus -32.1767 -8.30584 88.927
lradius 82.4609
lwrist 30.8041
lhand -25.921 11.4288
lfingers 7.12502
lthumb 0.622011 41.4076
rfemur -32.1098 8.56407 19.0592
rtibia 39.3371
rfoot -11.0623 -14.0589
rtoes -7.3334
lfemur 22.4411 -2.80748 -23.061
ltibia 28.597
lfoot 4.25901 -0.894873
ltoes -22.9136
199
root 9.97574 16.8866 7.27324 -2.57951 5.10798 1.01935
lowerback 5.78025 -3.21838 -0.88239
upperback 0.813468 -4.30046 1.59654
thorax -2.20726 -2.13322 2.45653
lowerneck -15.6645 2.78169 -2.01498
upperneck 1.51362 4.30765 -3.95341
head 3.31443 1.92475 -0.622421
rclavicle -9.11925e-015 6.36111e-015
rhumerus -56.3538 -16.4034 -68.5296
rradius 8.20252
rwrist 10.0009
rhand -28.738 19.2073
rfingers 7.12502
rthumb -2.09864 -10.7621
lclavicle -9.11925e-015 6.36111e-015
lhumerus -32.8448 -7.95537 89.0078
lradius 81.9546
lwrist 30.4907
lhand -26.2438 11.0315
lfingers 7.12502
lthumb 0.310298 41.011
rfemur -31.4505 8.80993 20.0265
rtibia 40.3493
rfoot -11.5897 -13.6169
rtoes -6.5246
lfemur 21.5676 -2.12207 -22.2916
ltibia 31.8479
lfoot 6.88083 -1.11955
ltoes -22.7682
200
root 9.96239 16.8613 7.52728 -3.28627 4.57864 0.0414152
lowerback 6.29078 -3.14026 0.0655986
upperback 1.06499 -4.1257 1.90469
thorax -2.28507 -2.05239 2.25655
lowerneck -16.0041 2.84856 -2.0689
upperneck 1.66698 4.43906 -4.167
head 3.44045 1.97045 -0.668272
rclavicle 8.4235e-015 -9.54166e-015
rhumerus -55.5987 -17.0187 -68.0051
rradius 7.88867
rwrist 10.3562
rhand -29.2144 19.2008
rfingers 7.12502
rthumb -2.55876 -10.7636
lclavicle 8.4235e-015 -9.54166e-015
lhumerus -33.541 -7.41343 89.1959
lradius 81.4321
lwrist 30.1271
lhand -25.7921 11.049
lfingers 7.12502
lthumb 0.746584 41.0274
rfemur -30.1178 8.97922 21.6965
rtibia 41.2268
rfoot -12.3944 -13.2404
rtoes -5.27922
lfemur 20.9031 -1.76299 -21.0185
ltibia 35.3749
lfoot 9.23685 -0.616984
ltoes -21.8082
201
root 9.94973 16.8499 7.7847 -3.74927 4.16697 -0.813914
lowerback 6.5101 -3.12195 0.893971
upperback 1.29145 -4.03795 2.16471
thorax -2.21534 -2.01428 2.06145
lowerneck -16.0901 2.93155 -2.00373
upperneck 1.47879 4.54053 -4.32713
head 3.39799 2.01686 -0.724908
rclavicle -2.23384e-014 6.36111e-015
rhumerus -54.7204 -17.64 -67.5796
rradius 7.73672
rwrist 10.7433
rhand -29.289 18.5914
rfingers 7.12502
rthumb -2.63083 -11.3721
lclavicle -2.23384e-014 6.36111e-015
lhumerus -34.3834 -6.70203 89.3362
lradius 81.0164
lwrist 29.6325
lhand -25.0988 11.6215
lfingers 7.12502
lthumb 1.41616 41.5965
rfemur -28.9625 9.18226 23.1642
rtibia 42.0131
rfoot -12.8369 -13.0901
rtoes -6.21887
lfemur 19.7986 -1.27007 -19.711
ltibia 39.117
lfoot 11.7429 -0.113396
ltoes -21.2639
202
root 9.93949 16.8428 8.03525 -3.83532 4.01336 -1.07544
lowerback 6.49516 -3.13343 1.17525
upperback 1.36304 -4.03461 2.21602
thorax -2.14897 -2.01437 1.95389
lowerneck -16.4211 2.90413 -1.43186
upperneck 1.67601 4.45483 -4.92452
head 3.5673 1.94116 -1.02925
rclavicle -7.05686e-015 -4.77083e-015
rhumerus -54.0044 -18.3511 -67.1891
rradius 7.94904
rwrist 10.842
rhand -28.9135 18.1419
rfingers 7.12502
rthumb -2.26816 -11.8258
lclavicle -7.05686e-015 -4.77083e-015
lhumerus -35.11 -6.16614 89.4015
lradius 80.2193
lwrist 29.2283
lhand -24.2411 11.9373
lfingers 7.12502
lthumb 2.24452 41.9052
rfemur -28.1548 9.13202 23.8499
rtibia 42.7248
rfoot -13.3047 -12.9425
rtoes -8.48541
lfemur 18.1355 -0.640279 -18.8948
ltibia 42.8899
lfoot 14.5322 0.423061
ltoes -21.5125
203
root 9.92589 16.8449 8.27384 -4.12003 4.05235 -1.36891
lowerback 6.87993 -3.23583 1.35482
upperback 1.35789 -4.14326 2.35011
thorax -2.36845 -2.06836 2.02629
lowerneck -16.9906 2.80867 -1.01278
upperneck 2.70291 4.36769 -5.7893
head 3.63255 1.81651 -1.28159
rclavicle 5.19325e-014 -2.22639e-014
rhumerus -53.4882 -18.8419 -66.6872
rradius 8.35181
rwrist 10.9165
rhand -28.4776 18.883
rfingers 7.12502
rthumb -1.84715 -11.0887
lclavicle 5.19325e-014 -2.22639e-014
lhumerus -35.7849 -5.44734 89.4963
lradius 78.9753
lwrist 28.5843
lhand -23.3985 11.3917
lfingers 7.12502
lthumb 3.0583 41.3495
rfemur -27.0585 8.92918 24.5236
rtibia 43.3248
rfoot -14.3493 -12.6696
rtoes -7.33704
lfemur 16.5415 -0.714065 -18.4976
ltibia 46.5311
lfoot 17.007 2.3874
ltoes -22.4342
204
root 9.91661 16.8676 8.5102 -4.27407 4.28033 -0.894441
lowerback 7.12446 -3.28779 0.848059
upperback 1.3779 -4.24674 2.24346
thorax -2.45267 -2.11656 2.22231
lowerneck -16.9138 2.78962 -1.17707
upperneck 2.63033 4.36082 -5.67646
head 3.59145 1.8206 -1.22267
rclavicle 6.7065e-014 -5.00937e-014
rhumerus -52.9491 -19.6295 -66.1847
rradius 8.77366
rwrist 11.1302
rhand -28.4674 19.5949
rfingers 7.12502
rthumb -1.83735 -10.377
lclavicle 6.7065e-014 -5.00937e-014
lhumerus -36.5256 -4.78213 89.6548
lradius 77.8196
lwrist 27.837
lhand -23.0961 10.5552
lfingers 7.12502
lthumb 3.35034 40.5086
rfemur -26.0552 8.3324 24.2935
rtibia 43.7893
rfoot -15.5844 -12.1428
rtoes -4.08299
lfemur 14.8107 -1.25502 -19.364
ltibia 49.9609
lfoot 18.8363 5.64685
ltoes -23.3658
205
root 9.91628 16.9041 8.74862 -4.21477 4.56927 -0.404931
lowerback 7.01276 -3.24688 0.566746
upperback 1.4393 -4.22163 2.06854
thorax -2.32092 -2.1036 2.18625
lowerneck -16.3377 2.79403 -1.71184
upperneck 1.50598 4.34945 -4.89555
head 3.47957 1.89316 -0.979497
rclavicle -5.27525e-014 3.4191e-014
rhumerus -52.4889 -20.801 -65.5417
rradius 9.58088
rwrist 11.1665
rhand -28.3918 18.9993
rfingers 7.12502
rthumb -1.76431 -10.9732
lclavicle -5.27525e-014 3.4191e-014
lhumerus -37.1004 -4.63204 89.9431
lradius 76.6146
lwrist 27.5983
lhand -23.2251 10.2931
lfingers 7.12502
lthumb 3.22575 40.2485
rfemur -25.2219 7.42055 23.968
rtibia 43.9559
rfoot -16.7314 -11.4035
rtoes -0.390765
lfemur 12.865 -1.51369 -20.0844
ltibia 53.2026
lfoot 19.5693 9.26809
ltoes -21.7073
206
root 9.91503 16.9401 8.97865 -4.2536 4.80662 -0.683286
lowerback 7.02113 -3.21094 1.09498
upperback 1.54162 -4.13663 2.04881
thorax -2.26151 -2.06415 1.86165
lowerneck -16.0828 2.76384 -2.00147
upperneck 0.922359 4.30419 -4.56099
head 3.20404 1.90327 -0.82446
rclavicle 3.01904e-014 -1.35174e-014
rhumerus -52.1388 -22.0283 -64.8702
rradius 10.485
rwrist 11.5136
rhand -27.7788 18.2846
rfingers 7.12502
rthumb -1.17232 -11.692
lclavicle 3.01904e-014 -1.35174e-014
lhumerus -37.3992 -4.76031 90.1344
lradius 75.0946
lwrist 27.4667
lhand -23.0836 10.9275
lfingers 7.12502
lthumb 3.36234 40.8807
rfemur -24.1838 6.66044 24.4688
rtibia 43.8117
rfoot -17.603 -10.8043
rtoes 1.60584
lfemur 10.8368 -1.46548 -19.7027
ltibia 56.2995
lfoot 19.8642 11.5948
ltoes -18.0761
